# AST/ASF file generated using VICON BodyLanguage
# -----------------------------------------------
:version 1.10
:name VICON
:units
  mass 1.0
  length 0.45
  angle deg
:documentation
   .ast/.asf automatically generated from VICON data using
   VICON BodyBuilder and BodyLanguage model FoxedUp or BRILLIANT.MOD
:root
   order TX TY TZ RX RY RZ
   axis XYZ
   position 0 0 0  
   orientation 0 0 0 
:bonedata
  begin
     id 1 
     name lhipjoint
     direction 0.623529 -0.717805 0.309788 
     length 2.23224 
     axis 0 0 0  XYZ
  end
  begin
     id 2 
     name lfemur
     direction 0.34202 -0.939693 0  
     length 7.11402  
     axis 0 0 20  XYZ
    dof rx ry rz
    limits (-160.0 20.0)
           (-70.0 70.0)
           (-60.0 70.0)
  end
  begin
     id 3 
     name ltibia
     direction 0.34202 -0.939693 0   
     length 6.78496   
     axis 0 0 20   XYZ
    dof rx
    limits (-10.0 170.0)
  end
  begin
     id 4 
     name lfoot
     direction 0.125078 -0.343648 0.930732   
     length 1.84054   
     axis -90 7.62852e-016 20   XYZ
    dof rx rz
    limits (-45.0 90.0)
           (-70.0 20.0)
  end
  begin
     id 5 
     name ltoes
     direction 1.53565e-011 -4.21893e-011 1   
     length 0.916474   
     axis -90 7.62852e-016 20   XYZ
    dof rx
    limits (-90.0 20.0)
  end
  begin
     id 6 
     name rhipjoint
     direction -0.564688 -0.757748 0.327026   
     length 2.11457  
     axis 0 0 0  XYZ 
  end
  begin
     id 7 
     name rfemur
     direction -0.34202 -0.939693 0   
     length 7.14609   
     axis 0 0 -20   XYZ
    dof rx ry rz
    limits (-160.0 20.0)
           (-70.0 70.0)
           (-70.0 60.0)
  end
  begin
     id 8 
     name rtibia
     direction -0.34202 -0.939693 0   
     length 6.78101   
     axis 0 0 -20   XYZ
    dof rx
    limits (-10.0 170.0)
 end
 begin
     id 9 
     name rfoot
     direction -0.0992671 -0.272734 0.956955   
     length 1.96168  
     axis -90 -7.62852e-016 -20   XYZ
    dof rx rz
    limits (-45.0 90.0)
           (-20.0 70.0)
  end
  begin
     id 10 
     name rtoes
     direction -1.5356e-011 -4.21891e-011 1   
     length 0.982933   
     axis -90 -7.62852e-016 -20   XYZ
    dof rx
    limits (-90.0 20.0)
  end
  begin
     id 11 
     name lowerback
     direction -0.00596953 0.998668 0.0512524   
     length 1.87557   
     axis 0 0 0   XYZ
    dof rx ry rz
    limits (-20.0 45.0)
           (-30.0 30.0)
           (-30.0 30.0)
  end
  begin
     id 12 
     name upperback
     direction 0.00584879 0.999652 0.0257308   
     length 1.87883   
     axis 0 0 0   XYZ
    dof rx ry rz
    limits (-20.0 45.0)
           (-30.0 30.0)
           (-30.0 30.0)
  end
  begin
     id 13 
     name thorax
     direction 0.010104 0.999947 0.00178881   
     length 1.87779   
     axis 0 0 0   XYZ
    dof rx ry rz
    limits (-20.0 45.0)
           (-30.0 30.0)
           (-30.0 30.0)
  end
  begin
     id 14 
     name lowerneck
     direction 0.0120771 0.995934 -0.0892773   
     length 1.40897   
     axis 0 0 0   XYZ
    dof rx ry rz
    limits (-20.0 45.0)
           (-30.0 30.0)
           (-30.0 30.0)
  end
  begin
     id 15 
     name upperneck
     direction -0.030568 0.999465 -0.0116366   
     length 1.38661   
     axis 0 0 0   XYZ
    dof rx ry rz
    limits (-20.0 45.0)
           (-30.0 30.0)
           (-30.0 30.0)
  end
  begin
     id 16
     name head
     direction -0.0170715 0.999854 -0.00104426  
     length 1.47052  
     axis 0 0 0   XYZ
    dof rx ry rz
    limits (-20.0 45.0)
           (-30.0 30.0)
           (-30.0 30.0)
  end
  begin
     id 17 
     name lclavicle
     direction 0.977763 0.206143 0.038532  
     length 3.02424  
     axis 0 0 0   XYZ
    dof ry rz
    limits (-20.0 10.0)
           (0.0 20.0)
  end
  begin
     id 18 
     name lhumerus
     direction 1 -4.48965e-011 -2.62654e-027   
     length 4.68382   
     axis 180 -30 -90   XYZ
    dof rx ry rz
    limits (-60.0 90.0)
           (-90.0 90.0)
           (-90.0 90.0)
  end
  begin
     id 19
     name lradius
     direction 1 -4.48973e-011 -1.54954e-027   
     length 2.98124   
     axis 180 -30 -90   XYZ
    dof rx
    limits (-10.0 170.0)
  end
  begin
     id 20
     name lwrist
     direction 1 -4.48959e-011 7.20928e-028   
     length 1.49062   
     axis -5.52449e-016 90 90   XYZ
    dof ry
    limits (-180.0 0.0)
 end
  begin
     id 21 
     name lhand
     direction 1 -4.48971e-011 1.44186e-027   
     length 0.707595   
     axis -9.20027e-016 90 90   XYZ
    dof rx rz
    limits (-90.0 90.0)
           (-45.0 45.0)
  end
  begin
     id 22 
     name lfingers
     direction 1 -4.48985e-011 2.88371e-027   
     length 0.570481   
     axis -1.84005e-015 90 90   XYZ
    dof rx
    limits (0.0 90.0)
  end
  begin
     id 23
     name lthumb
     direction 0.707107 -6.34929e-011 0.707107   
     length 0.819101   
     axis -90 45 2.85299e-015   XYZ
    dof rx rz
    limits (-45.0 45.0)
           (-45.0 45.0)
  end
  begin
     id 24 
     name rclavicle
     direction -0.958661 0.284411 -0.00895327   
     length 3.11921  
     axis 0 0 0   XYZ 
    dof ry rz
    limits (-10.0 20.0)
           (-20.0 0.0)
  end
  begin
     id 25 
     name rhumerus
     direction -1 -4.48963e-011 -4.22193e-027  
     length 4.75876   
     axis 180 30 90   XYZ
    dof rx ry rz
    limits (-90.0 60.0)
           (-90.0 90.0)
           (-90.0 90.0)
  end
  begin
     id 26 
     name rradius
     direction -1 -4.48968e-011 -1.07616e-027   
     length 2.93293   
     axis 180 30 90   XYZ
    dof rx
    limits (-10.0 170.0)
  end
  begin
     id 27 
     name rwrist
     direction -1 -4.48965e-011 7.20928e-028   
     length 1.46647   
     axis -5.52449e-016 -90 -90   XYZ
    dof ry
    limits (-180.0 0.0)
  end
  begin
     id 28
     name rhand
     direction -1 -4.48971e-011 1.44186e-027   
     length 0.831748   
     axis -9.20027e-016 -90 -90   XYZ
    dof rx rz
    limits (-90.0 90.0)
           (-45.0 45.0)
  end
  begin
     id 29
     name rfingers
     direction -1 -4.48961e-011 2.88371e-027   
     length 0.670577   
     axis -1.84005e-015 -90 -90   XYZ
    dof rx
    limits (0.0 90.0)
  end
  begin
     id 30
     name rthumb
     direction -0.707107 -6.34929e-011 0.707107   
     length 0.962818   
     axis -90 -45 -2.85299e-015   XYZ
    dof rx rz
    limits (-45.0 45.0)
           (-45.0 45.0)
  end
:hierarchy
  begin
    root lhipjoint rhipjoint lowerback
    lhipjoint lfemur
    lfemur ltibia
    ltibia lfoot
    lfoot ltoes
    rhipjoint rfemur
    rfemur rtibia
    rtibia rfoot
    rfoot rtoes
    lowerback upperback
    upperback thorax
    thorax lowerneck lclavicle rclavicle
    lowerneck upperneck
    upperneck head
    lclavicle lhumerus
    lhumerus lradius
    lradius lwrist
    lwrist lhand lthumb
    lhand lfingers
    rclavicle rhumerus
    rhumerus rradius
    rradius rwrist
    rwrist rhand rthumb
    rhand rfingers
  end

#!OML:ASF E:\id_vita\Project 1\Capture day 1\Session 1\Female.ASF
:FULLY-SPECIFIED
:DEGREES
512
root -15.3444 15.0171 1.36148 21.2666 84.3536 -46.8179
lowerback 12.7533 2.41578 -7.0422
upperback 1.49196 2.10049 -2.91557
thorax -5.72225 1.18128 0.515697
lowerneck -1.58266 -0.565638 -6.21834
upperneck -32.6943 3.77608 11.6554
head -10.4373 2.23649 4.91409
rclavicle 1.11319e-014 -4.45278e-014
rhumerus 40.1823 19.2823 -62.3713
rradius 56.0322
rwrist 19.5104
rhand -49.6341 59.1096
rfingers 7.12502
rthumb -22.2379 30.369
lclavicle 1.11319e-014 -4.45278e-014
lhumerus 52.2784 -15.1351 45.392
lradius 47.6764
lwrist -20.8701
lhand -54.9823 67.2402
lfingers 7.12502
lthumb -27.3632 984.726
rfemur -67.5738 -2.12926 21.0323
rtibia 55.3954
rfoot 0.470317 -21.9922
rtoes 5.30533
lfemur -74.2194 -2.90734 -24.491
ltibia 42.6625
lfoot -33.2231 19.3204
ltoes -5.81615
513
root -15.3043 15.0103 1.34984 19.8552 84.4952 -48.5457
lowerback 12.3942 2.32691 -6.77059
upperback 1.44357 2.05118 -2.90042
thorax -5.5621 1.14814 0.402379
lowerneck -1.62883 -0.560673 -6.06068
upperneck -32.7068 3.76788 11.5388
head -10.4298 2.22764 4.84178
rclavicle -8.07066e-014 -7.21588e-014
rhumerus 40.0876 19.2625 -62.5653
rradius 56.0118
rwrist 19.5098
rhand -49.4956 59.4754
rfingers 7.12502
rthumb -22.105 30.719
lclavicle -8.07066e-014 -7.21588e-014
lhumerus 52.3341 -15.1138 45.2401
lradius 47.5658
lwrist -20.7396
lhand -54.9469 68.1443
lfingers 7.12502
lthumb -27.3294 983.817
rfemur -69.266 -2.18948 21.2548
rtibia 56.1279
rfoot -0.985954 -21.8437
rtoes 2.01875
lfemur -74.2955 -3.02732 -24.3505
ltibia 42.3783
lfoot -32.9063 19.688
ltoes -7.43562
514
root -15.2541 15.0116 1.3414 19.4013 84.4541 -48.8765
lowerback 12.4149 2.31811 -6.81573
upperback 1.50457 2.0384 -2.86482
thorax -5.51077 1.1415 0.46833
lowerneck -1.80746 -0.593979 -6.17062
upperneck -32.5462 3.72573 11.6498
head -10.3301 2.21333 4.90115
rclavicle -6.22196e-014 5.76476e-015
rhumerus 40.4542 19.3591 -62.604
rradius 55.6224
rwrist 19.5481
rhand -49.523 60.3994
rfingers 7.12502
rthumb -22.1312 31.6461
lclavicle -6.22196e-014 5.76476e-015
lhumerus 52.3129 -14.9955 45.2935
lradius 47.4959
lwrist -20.6711
lhand -54.9222 69.0126
lfingers 7.12502
lthumb -27.3057 982.945
rfemur -70.4384 -2.19252 21.3429
rtibia 56.7826
rfoot -2.58981 -21.6036
rtoes 1.66612
lfemur -73.8185 -3.016 -24.3756
ltibia 42.1004
lfoot -33.0932 19.7831
ltoes -7.38635
515
root -15.2067 15.0073 1.3298 20.7829 84.5035 -47.4284
lowerback 12.451 2.25427 -6.90958
upperback 1.48756 1.9385 -2.87463
thorax -5.54551 1.09655 0.525899
lowerneck -1.59429 -0.596068 -6.43618
upperneck -32.5959 3.75693 11.8893
head -10.3986 2.22599 5.04139
rclavicle 3.18055e-015 -1.45113e-014
rhumerus 41.1143 19.6305 -62.3348
rradius 54.9195
rwrist 19.3854
rhand -49.6282 60.6882
rfingers 7.12502
rthumb -22.2322 31.9469
lclavicle 3.18055e-015 -1.45113e-014
lhumerus 52.18 -14.9161 45.4459
lradius 47.3672
lwrist -20.6864
lhand -55.0534 68.38
lfingers 7.12502
lthumb -27.4312 983.597
rfemur -71.7018 -2.34803 21.284
rtibia 57.4256
rfoot -4.15005 -21.4751
rtoes 2.19241
lfemur -73.4073 -3.17039 -24.5411
ltibia 41.869
lfoot -33.2094 19.836
ltoes -7.21088
516
root -15.1589 15.0076 1.31998 21.443 84.6447 -46.6794
lowerback 12.583 2.18893 -6.89477
upperback 1.45344 1.84029 -2.88994
thorax -5.648 1.0517 0.513119
lowerneck -1.29386 -0.55518 -6.43594
upperneck -32.7234 3.81498 11.8987
head -10.5135 2.23981 5.04653
rclavicle -2.22639e-014 5.56597e-014
rhumerus 41.1845 19.7809 -62.384
rradius 54.6513
rwrist 19.358
rhand -49.5901 60.4972
rfingers 7.12502
rthumb -22.1957 31.7516
lclavicle -2.22639e-014 5.56597e-014
lhumerus 52.1064 -15.0286 45.3789
lradius 47.2171
lwrist -20.3983
lhand -55.3415 67.3802
lfingers 7.12502
lthumb -27.7067 984.641
rfemur -72.8831 -2.44096 21.2
rtibia 58.0024
rfoot -5.5969 -21.7333
rtoes 2.46479
lfemur -72.967 -3.35762 -24.5837
ltibia 41.6429
lfoot -32.3258 20.4753
ltoes -10.2614
517
root -15.1209 14.9979 1.31546 20.422 84.627 -47.9897
lowerback 12.2119 2.16854 -6.89345
upperback 1.38839 1.84437 -2.85434
thorax -5.51229 1.05107 0.560728
lowerneck -1.40865 -0.508824 -6.32018
upperneck -32.5804 3.84838 11.7866
head -10.4372 2.25385 4.97388
rclavicle 4.69132e-014 5.84924e-014
rhumerus 41.0807 19.7822 -62.7037
rradius 54.744
rwrist 19.3212
rhand -49.4117 61.8381
rfingers 7.12502
rthumb -22.0243 33.0721
lclavicle 4.69132e-014 5.84924e-014
lhumerus 52.0252 -14.9782 45.4432
lradius 47.2571
lwrist -20.665
lhand -55.2872 69.5882
lfingers 7.12502
lthumb -27.6548 982.425
rfemur -74.528 -2.25484 21.3022
rtibia 58.5326
rfoot -6.3937 -22.1108
rtoes 0.959196
lfemur -73.0288 -3.45388 -24.2961
ltibia 41.4582
lfoot -32.8319 20.2395
ltoes -8.25788
518
root -15.0718 14.9923 1.30781 19.1181 84.7687 -49.2951
lowerback 12.1281 2.14693 -6.84262
upperback 1.44429 1.83994 -2.73042
thorax -5.40835 1.04522 0.668419
lowerneck -1.51525 -0.526296 -6.48607
upperneck -32.536 3.81153 11.8013
head -10.3968 2.25897 5.01092
rclavicle -2.78299e-015 2.05245e-014
rhumerus 40.8097 19.7078 -62.845
rradius 55.2209
rwrist 18.9428
rhand -49.1079 64.6177
rfingers 7.12502
rthumb -21.7327 35.8177
lclavicle -2.78299e-015 2.05245e-014
lhumerus 51.9411 -14.9026 45.7253
lradius 47.3167
lwrist -20.8025
lhand -55.4529 69.3066
lfingers 7.12502
lthumb -27.8132 982.732
rfemur -75.7717 -2.23701 21.4867
rtibia 58.9683
rfoot -7.15691 -22.4518
rtoes -1.14604
lfemur -72.7317 -3.7187 -23.9633
ltibia 41.2558
lfoot -33.0448 20.3432
ltoes -7.39588
519
root -15.0228 14.9873 1.29938 17.5131 84.9732 -50.9996
lowerback 11.9947 2.09499 -6.6962
upperback 1.47541 1.81005 -2.61353
thorax -5.29849 1.02508 0.720644
lowerneck -1.62488 -0.577055 -6.58652
upperneck -32.5625 3.72783 11.7714
head -10.3767 2.24047 5.02529
rclavicle -2.50469e-014 -6.56486e-014
rhumerus 40.3686 19.7643 -62.8491
rradius 55.3849
rwrist 19.9976
rhand -49.8104 60.7057
rfingers 7.12502
rthumb -22.4072 31.9854
lclavicle -2.50469e-014 -6.56486e-014
lhumerus 51.8834 -14.8352 46.0141
lradius 47.2808
lwrist -20.8547
lhand -55.5142 67.3013
lfingers 7.12502
lthumb -27.8719 984.746
rfemur -77.0869 -2.30337 21.7995
rtibia 59.3146
rfoot -7.7414 -23.0841
rtoes -3.3848
lfemur -72.534 -3.9366 -23.7125
ltibia 41.0326
lfoot -32.762 20.6496
ltoes -8.08603
520
root -14.9762 14.9838 1.296 16.6107 85.0459 -51.9953
lowerback 11.9759 2.00494 -6.56084
upperback 1.45332 1.70839 -2.65627
thorax -5.29966 0.97324 0.617587
lowerneck -1.90808 -0.600017 -6.51298
upperneck -32.4005 3.71119 11.8122
head -10.2572 2.23056 5.02133
rclavicle 5.24792e-014 -3.38928e-014
rhumerus 40.4311 19.9189 -63.0694
rradius 55.2888
rwrist 19.9308
rhand -49.8872 60.4384
rfingers 7.12502
rthumb -22.4809 31.7269
lclavicle 5.24792e-014 -3.38928e-014
lhumerus 51.7444 -14.7582 45.8799
lradius 47.3487
lwrist -20.9797
lhand -55.3475 68.6237
lfingers 7.12502
lthumb -27.7125 983.398
rfemur -78.3917 -2.28442 22.0706
rtibia 59.5585
rfoot -8.22887 -22.5867
rtoes -3.18451
lfemur -72.3022 -3.96872 -23.6396
ltibia 40.7198
lfoot -32.0596 21.029
ltoes -9.96841
